<svg width="328" height="328" viewBox="0 0 328 328" fill="none" xmlns="http://www.w3.org/2000/svg">
<g filter="url(#filter0_d)">
<rect x="6" y="2" width="316" height="316" stroke="white" stroke-width="4"/>
<path d="M83.5938 159V115.25H90.5938V152.125H107.094V159H83.5938ZM111.156 119.562C111.156 118.021 111.844 116.917 113.219 116.25C113.76 116 114.302 115.875 114.844 115.875C116.427 115.875 117.552 116.562 118.219 117.938C118.469 118.479 118.594 119.021 118.594 119.562C118.594 121.062 117.885 122.146 116.469 122.812C115.927 123.062 115.385 123.188 114.844 123.188C113.344 123.188 112.24 122.521 111.531 121.188C111.281 120.688 111.156 120.146 111.156 119.562ZM111.594 159V125.688H118.281V159H111.594ZM124.094 159V114.562H130.969V159H124.094ZM134.094 159V152.562H137.844C139.344 152.562 140.469 151.875 141.219 150.5C141.469 150.083 141.594 149.729 141.594 149.438V133.938C141.594 133.062 141.094 132.271 140.094 131.562C139.385 131.104 138.656 130.854 137.906 130.812H134.094V124.375H137.906C141.448 124.375 144.26 125.896 146.344 128.938C147.469 130.562 148.052 132.146 148.094 133.688V149.562C148.094 151.479 147.281 153.417 145.656 155.375C143.573 157.75 140.969 158.958 137.844 159H134.094ZM152.594 159V124.375H159.344V128.688C160.51 126.854 162.26 125.542 164.594 124.75C165.677 124.375 166.74 124.188 167.781 124.188H169.406L167.844 130.75C165.385 130.792 163.24 131.979 161.406 134.312C160.031 136.104 159.344 137.958 159.344 139.875V159H152.594ZM172.031 150.938C172.031 153.271 173.156 155.25 175.406 156.875C177.365 158.292 179.698 159 182.406 159V152.812C179.323 152.771 177.76 151.688 177.719 149.562V148.25C177.76 147.417 178.01 146.833 178.469 146.5C178.802 146.25 180.76 145.646 184.344 144.688C186.844 144.021 188.594 143.417 189.594 142.875V149.062C189.594 151.062 188.656 152.271 186.781 152.688C186.406 152.771 186.01 152.812 185.594 152.812V159C188.344 158.958 190.552 158.25 192.219 156.875C193.677 158.292 195.51 159 197.719 159V152.75C196.635 152.667 196.073 152 196.031 150.75V133.938C196.031 131.438 195.031 129.208 193.031 127.25C191.031 125.292 188.531 124.312 185.531 124.312V130.438C187.406 130.438 188.656 131.208 189.281 132.75C189.49 133.25 189.594 133.771 189.594 134.312V135.625C189.594 136.708 187.302 137.958 182.719 139.375C178.385 140.708 175.927 141.542 175.344 141.875C173.177 143.167 172.073 145.167 172.031 147.875V150.938ZM172.531 133L178.281 135.188C178.281 132.812 179.198 131.312 181.031 130.688C181.49 130.521 181.948 130.438 182.406 130.438V124.312C179.531 124.312 177.052 125.354 174.969 127.438C173.344 129.104 172.531 130.958 172.531 133ZM202.219 159V124.375H208.969V128.688C210.135 126.854 211.885 125.542 214.219 124.75C215.302 124.375 216.365 124.188 217.406 124.188H219.031L217.469 130.75C215.01 130.792 212.865 131.979 211.031 134.312C209.656 136.104 208.969 137.958 208.969 139.875V159H202.219ZM220.219 124.375H227.344L236.281 151.438L229.719 171.188H222.844L229.031 151.312L220.219 124.375ZM234.406 136.062L238.719 124.375H245.781L238.031 145.875H237.344L234.406 136.062Z" fill="white"/>
<path d="M123.67 190.228H118.874V204H117.048V190.228H112.252V188.6H123.67V190.228ZM131.773 199.732H126.097L124.557 204H122.753L128.583 188.358H129.419L135.271 204H133.357L131.773 199.732ZM126.691 198.148H131.223L129.507 193.462L128.957 191.13H128.935L128.385 193.506L126.691 198.148ZM144.268 200.084C144.268 199.468 144.085 198.969 143.718 198.588C143.352 198.192 142.89 197.847 142.332 197.554C141.79 197.246 141.196 196.96 140.55 196.696C139.905 196.432 139.304 196.117 138.746 195.75C138.204 195.369 137.749 194.907 137.382 194.364C137.016 193.807 136.832 193.103 136.832 192.252C136.832 191.049 137.25 190.096 138.086 189.392C138.922 188.688 140.11 188.336 141.65 188.336C142.545 188.336 143.359 188.402 144.092 188.534C144.826 188.666 145.398 188.835 145.808 189.04L145.258 190.646C144.921 190.485 144.422 190.331 143.762 190.184C143.117 190.037 142.384 189.964 141.562 189.964C140.594 189.964 139.868 190.184 139.384 190.624C138.9 191.049 138.658 191.555 138.658 192.142C138.658 192.714 138.842 193.191 139.208 193.572C139.575 193.953 140.03 194.298 140.572 194.606C141.13 194.899 141.731 195.193 142.376 195.486C143.022 195.779 143.616 196.124 144.158 196.52C144.716 196.901 145.178 197.363 145.544 197.906C145.911 198.449 146.094 199.123 146.094 199.93C146.094 200.59 145.977 201.184 145.742 201.712C145.508 202.24 145.163 202.695 144.708 203.076C144.254 203.457 143.704 203.751 143.058 203.956C142.413 204.161 141.68 204.264 140.858 204.264C139.758 204.264 138.849 204.176 138.13 204C137.412 203.839 136.854 203.655 136.458 203.45L137.074 201.8C137.412 201.991 137.91 202.181 138.57 202.372C139.23 202.548 139.971 202.636 140.792 202.636C141.276 202.636 141.731 202.592 142.156 202.504C142.582 202.401 142.948 202.247 143.256 202.042C143.564 201.822 143.806 201.551 143.982 201.228C144.173 200.905 144.268 200.524 144.268 200.084ZM158.222 196.938H150.83V204H149.004V188.6H150.83V195.31H158.222V188.6H160.048V204H158.222V196.938ZM166.645 196.872H165.611V204H163.785V188.6H165.611V195.772L166.601 195.464L171.771 188.6H173.883L168.735 195.222L167.811 195.948L168.933 196.828L174.565 204H172.255L166.645 196.872ZM177.213 188.6H185.595V190.228H179.039V195.266H185.045V196.894H179.039V202.372H185.705V204H177.213V188.6ZM191.78 193.924L190.592 191.702H190.504L190.724 193.924V204H189.008V188.358H189.976L197.346 198.632L198.49 200.744H198.6L198.358 198.632V188.6H200.074V204.242H199.106L191.78 193.924ZM213.754 190.228H208.958V204H207.132V190.228H202.336V188.6H213.754V190.228Z" fill="white"/>
<line x1="74" y1="174" x2="253" y2="174" stroke="white" stroke-width="2"/>
</g>
<defs>
<filter id="filter0_d" x="0" y="0" width="328" height="328" filterUnits="userSpaceOnUse" color-interpolation-filters="sRGB">
<feFlood flood-opacity="0" result="BackgroundImageFix"/>
<feColorMatrix in="SourceAlpha" type="matrix" values="0 0 0 0 0 0 0 0 0 0 0 0 0 0 0 0 0 0 127 0" result="hardAlpha"/>
<feOffset dy="4"/>
<feGaussianBlur stdDeviation="2"/>
<feComposite in2="hardAlpha" operator="out"/>
<feColorMatrix type="matrix" values="0 0 0 0 0 0 0 0 0 0 0 0 0 0 0 0 0 0 0.25 0"/>
<feBlend mode="normal" in2="BackgroundImageFix" result="effect1_dropShadow"/>
<feBlend mode="normal" in="SourceGraphic" in2="effect1_dropShadow" result="shape"/>
</filter>
</defs>
</svg>
