<svg width="92" height="32" viewBox="0 0 92 32" fill="none" xmlns="http://www.w3.org/2000/svg">
<path d="M0.441406 25V0.390625H4.37891V21.1328H13.6602V25H0.441406ZM15.9453 2.81641C15.9453 1.94922 16.332 1.32812 17.1055 0.953125C17.4102 0.8125 17.7148 0.742188 18.0195 0.742188C18.9102 0.742188 19.543 1.12891 19.918 1.90234C20.0586 2.20703 20.1289 2.51172 20.1289 2.81641C20.1289 3.66016 19.7305 4.26953 18.9336 4.64453C18.6289 4.78516 18.3242 4.85547 18.0195 4.85547C17.1758 4.85547 16.5547 4.48047 16.1562 3.73047C16.0156 3.44922 15.9453 3.14453 15.9453 2.81641ZM16.1914 25V6.26172H19.9531V25H16.1914ZM23.2227 25V0.00390625H27.0898V25H23.2227ZM28.8477 25V21.3789H30.957C31.8008 21.3789 32.4336 20.9922 32.8555 20.2188C32.9961 19.9844 33.0664 19.7852 33.0664 19.6211V10.9023C33.0664 10.4102 32.7852 9.96484 32.2227 9.56641C31.8242 9.30859 31.4141 9.16797 30.9922 9.14453H28.8477V5.52344H30.9922C32.9844 5.52344 34.5664 6.37891 35.7383 8.08984C36.3711 9.00391 36.6992 9.89453 36.7227 10.7617V19.6914C36.7227 20.7695 36.2656 21.8594 35.3516 22.9609C34.1797 24.2969 32.7148 24.9766 30.957 25H28.8477ZM39.2539 25V5.52344H43.0508V7.94922C43.707 6.91797 44.6914 6.17969 46.0039 5.73438C46.6133 5.52344 47.2109 5.41797 47.7969 5.41797H48.7109L47.832 9.10938C46.4492 9.13281 45.2422 9.80078 44.2109 11.1133C43.4375 12.1211 43.0508 13.1641 43.0508 14.2422V25H39.2539ZM50.1875 20.4648C50.1875 21.7773 50.8203 22.8906 52.0859 23.8047C53.1875 24.6016 54.5 25 56.0234 25V21.5195C54.2891 21.4961 53.4102 20.8867 53.3867 19.6914V18.9531C53.4102 18.4844 53.5508 18.1562 53.8086 17.9688C53.9961 17.8281 55.0977 17.4883 57.1133 16.9492C58.5195 16.5742 59.5039 16.2344 60.0664 15.9297V19.4102C60.0664 20.5352 59.5391 21.2148 58.4844 21.4492C58.2734 21.4961 58.0508 21.5195 57.8164 21.5195V25C59.3633 24.9766 60.6055 24.5781 61.543 23.8047C62.3633 24.6016 63.3945 25 64.6367 25V21.4844C64.0273 21.4375 63.7109 21.0625 63.6875 20.3594V10.9023C63.6875 9.49609 63.125 8.24219 62 7.14062C60.875 6.03906 59.4688 5.48828 57.7812 5.48828V8.93359C58.8359 8.93359 59.5391 9.36719 59.8906 10.2344C60.0078 10.5156 60.0664 10.8086 60.0664 11.1133V11.8516C60.0664 12.4609 58.7773 13.1641 56.1992 13.9609C53.7617 14.7109 52.3789 15.1797 52.0508 15.3672C50.832 16.0938 50.2109 17.2188 50.1875 18.7422V20.4648ZM50.4688 10.375L53.7031 11.6055C53.7031 10.2695 54.2188 9.42578 55.25 9.07422C55.5078 8.98047 55.7656 8.93359 56.0234 8.93359V5.48828C54.4062 5.48828 53.0117 6.07422 51.8398 7.24609C50.9258 8.18359 50.4688 9.22656 50.4688 10.375ZM67.168 25V5.52344H70.9648V7.94922C71.6211 6.91797 72.6055 6.17969 73.918 5.73438C74.5273 5.52344 75.125 5.41797 75.7109 5.41797H76.625L75.7461 9.10938C74.3633 9.13281 73.1562 9.80078 72.125 11.1133C71.3516 12.1211 70.9648 13.1641 70.9648 14.2422V25H67.168ZM77.293 5.52344H81.3008L86.3281 20.7461L82.6367 31.8555H78.7695L82.25 20.6758L77.293 5.52344ZM85.2734 12.0977L87.6992 5.52344H91.6719L87.3125 17.6172H86.9258L85.2734 12.0977Z" fill="white"/>
</svg>
